<svg width="209" height="192" viewBox="0 0 209 192" fill="none" xmlns="http://www.w3.org/2000/svg">
<rect width="209" height="192" fill="#292F3F"/>
<path d="M43.2519 88.9081C43.2519 105.152 49.7048 120.731 61.191 132.217C72.6773 143.703 88.256 150.156 104.5 150.156C120.744 150.156 136.323 143.703 147.809 132.217C159.295 120.731 165.748 105.152 165.748 88.9081C165.748 72.6641 159.295 57.0854 147.809 45.5992C136.323 34.1129 120.744 27.66 104.5 27.66C88.256 27.66 72.6773 34.1129 61.191 45.5992C49.7048 57.0854 43.2519 72.6641 43.2519 88.9081Z" fill="#292F3F"/>
<path d="M104.5 39.9163C119.683 39.9214 134.323 45.5623 145.583 55.7459C156.844 65.9295 163.924 79.9307 165.45 95.0363C165.649 93.0156 165.748 90.9619 165.748 88.9081C165.748 72.6553 159.292 57.0682 147.799 45.5757C136.307 34.0833 120.72 27.6269 104.467 27.6269C88.2141 27.6269 72.627 34.0833 61.1345 45.5757C49.642 57.0682 43.1856 72.6553 43.1856 88.9081C43.1856 90.9619 43.1856 93.0156 43.4837 95.0363C45.0114 79.9193 52.1003 65.9088 63.375 55.7237C74.6497 45.5385 89.3061 39.905 104.5 39.9163Z" fill="#292F3F"/>
<path d="M43.2519 88.9081C43.2519 105.152 49.7048 120.731 61.191 132.217C72.6773 143.703 88.256 150.156 104.5 150.156C120.744 150.156 136.323 143.703 147.809 132.217C159.295 120.731 165.748 105.152 165.748 88.9081C165.748 72.6641 159.295 57.0854 147.809 45.5992C136.323 34.1129 120.744 27.66 104.5 27.66C88.256 27.66 72.6773 34.1129 61.191 45.5992C49.7048 57.0854 43.2519 72.6641 43.2519 88.9081Z" stroke="#1B202D" stroke-width="3.3125" stroke-linecap="round" stroke-linejoin="round"/>
<path d="M154.187 124.584C148.513 132.457 141.049 138.869 132.41 143.291C123.771 147.714 114.205 150.02 104.5 150.02C94.795 150.02 85.2289 147.714 76.5901 143.291C67.9513 138.869 60.487 132.457 54.8125 124.584C52.9865 118.117 52.0614 111.429 52.0631 104.709C52.0631 79.5669 64.1869 60.9506 79.1925 60.9506C90.8525 60.9506 100.624 65.7869 104.566 80.1962C108.508 65.9856 118.313 60.9506 129.94 60.9506C144.912 60.9506 157.036 79.5669 157.036 104.709C157.025 111.435 156.066 118.125 154.187 124.584Z" fill="#7A8194" stroke="#1B202D" stroke-width="3.3125" stroke-linecap="round" stroke-linejoin="round"/>
<path opacity="0.15" d="M64.2531 166.454C64.2531 167.842 68.4934 169.173 76.0412 170.155C83.5889 171.136 93.8259 171.688 104.5 171.688C115.174 171.688 125.411 171.136 132.959 170.155C140.507 169.173 144.747 167.842 144.747 166.454C144.747 165.066 140.507 163.734 132.959 162.753C125.411 161.771 115.174 161.22 104.5 161.22C93.8259 161.22 83.5889 161.771 76.0412 162.753C68.4934 163.734 64.2531 165.066 64.2531 166.454Z" fill="#1B202D"/>
<path d="M127.257 87.1525C127.257 88.5406 127.808 89.8718 128.79 90.8533C129.771 91.8349 131.103 92.3863 132.491 92.3863C133.879 92.3863 135.21 91.8349 136.191 90.8533C137.173 89.8718 137.724 88.5406 137.724 87.1525C137.724 85.7644 137.173 84.4332 136.191 83.4517C135.21 82.4702 133.879 81.9188 132.491 81.9188C131.103 81.9188 129.771 82.4702 128.79 83.4517C127.808 84.4332 127.257 85.7644 127.257 87.1525ZM71.2756 87.1525C71.2756 88.5406 71.827 89.8718 72.8086 90.8533C73.7901 91.8349 75.1213 92.3863 76.5094 92.3863C77.8975 92.3863 79.2287 91.8349 80.2102 90.8533C81.1917 89.8718 81.7431 88.5406 81.7431 87.1525C81.7431 85.7644 81.1917 84.4332 80.2102 83.4517C79.2287 82.4702 77.8975 81.9188 76.5094 81.9188C75.1213 81.9188 73.7901 82.4702 72.8086 83.4517C71.827 84.4332 71.2756 85.7644 71.2756 87.1525Z" fill="#1B202D" stroke="#1B202D" stroke-width="3.3125" stroke-linecap="round" stroke-linejoin="round"/>
<path d="M152.233 105.769C152.233 107.591 149.384 109.081 145.873 109.081C142.362 109.081 139.513 107.591 139.513 105.769C139.513 103.947 142.362 102.456 145.873 102.456C149.384 102.456 152.233 103.947 152.233 105.769ZM69.4869 105.769C69.4869 107.591 66.6381 109.081 63.1269 109.081C59.6156 109.081 56.7669 107.591 56.7669 105.769C56.7669 103.947 59.6156 102.456 63.1269 102.456C66.6381 102.456 69.4869 103.947 69.4869 105.769Z" fill="#EBCB00"/>
<path d="M118.512 116.568C118.512 120.284 117.036 123.848 114.408 126.475C111.78 129.103 108.216 130.579 104.5 130.579C100.784 130.579 97.2198 129.103 94.5921 126.475C91.9644 123.848 90.4881 120.284 90.4881 116.568C94.3844 113.21 99.3567 111.363 104.5 111.363C109.643 111.363 114.616 113.21 118.512 116.568Z" fill="#EBCB00" stroke="#1B202D" stroke-width="3.3125" stroke-linecap="round" stroke-linejoin="round"/>
<path d="M118.976 116.369C119.382 116.025 119.704 115.592 119.916 115.104C120.128 114.615 120.226 114.085 120.201 113.553C119.539 103.616 112.748 95.8975 104.5 95.8975C96.2519 95.8975 89.4613 103.682 88.7988 113.553C88.7739 114.085 88.8715 114.615 89.084 115.104C89.2965 115.592 89.6182 116.025 90.0244 116.369C94.0148 119.948 99.1421 122.001 104.5 122.166C109.858 122.001 114.985 119.948 118.976 116.369Z" fill="#7A8194"/>
<path d="M90.0575 116.402C90.9421 113.186 92.8097 110.326 95.3992 108.224C97.9888 106.121 101.171 104.881 104.5 104.676C107.829 104.881 111.011 106.121 113.601 108.224C116.19 110.326 118.058 113.186 118.943 116.402C119.349 116.058 119.67 115.625 119.883 115.137C120.095 114.649 120.193 114.118 120.168 113.586C119.506 103.649 112.715 95.9306 104.467 95.9306C96.2187 95.9306 89.4281 103.715 88.7656 113.586C88.7408 114.118 88.8384 114.649 89.0509 115.137C89.2634 115.625 89.5851 116.058 89.9913 116.402H90.0575Z" fill="#292F3F"/>
<path d="M118.976 116.369C119.382 116.025 119.704 115.592 119.916 115.104C120.128 114.615 120.226 114.085 120.201 113.553C119.539 103.616 112.748 95.8975 104.5 95.8975C96.2519 95.8975 89.4613 103.682 88.7988 113.553C88.7739 114.085 88.8715 114.615 89.084 115.104C89.2965 115.592 89.6182 116.025 90.0244 116.369C94.0148 119.948 99.1421 122.001 104.5 122.166C109.858 122.001 114.985 119.948 118.976 116.369Z" stroke="#1B202D" stroke-width="3.3125" stroke-linecap="round" stroke-linejoin="round"/>
</svg>
